# xmcd CD database file
#
# Track frame offsets:
#	150
#	8711
#	25406
#	32222
#	51197
#	56597
#	63292
#	84071
#	95924
#	101423
#	131722
#	143205
#	157404
#	167523
#	171454
#	202411
#
# Disc length: 2876 seconds
#
# Revision: 0
# Processed by: cddbd v1.5.1PL0 Copyright (c) Steve Scherf et al.
# Submitted via: CDex 1.51
#
DISCID=e50b3a10
DTITLE=camel - dust and dreams
DYEAR=1991
DGENRE=New Age
TTITLE0=dust bowl
TTITLE1=go west
TTITLE2=dusted out
TTITLE3=mother road
TTITLE4=needles
TTITLE5=rose of Sharon
TTITLE6=milk'n honey
TTITLE7=end of the line
TTITLE8=storm clouds
TTITLE9=cotton camp
TTITLE10=broken banks
TTITLE11=schiet rain
TTITLE12=whispers
TTITLE13=little rivers and little rose
TTITLE14=hopeless anger
TTITLE15=whispers in the rain
EXTD=YEAR: 1991
EXTT0=
EXTT1=
EXTT2=
EXTT3=
EXTT4=
EXTT5=
EXTT6=
EXTT7=
EXTT8=
EXTT9=
EXTT10=
EXTT11=
EXTT12=
EXTT13=
EXTT14=
EXTT15=
PLAYORDER=
